<svg xmlns="http://www.w3.org/2000/svg" version="1.1" xmlns:xlink="http://www.w3.org/1999/xlink" xmlns:svgjs="http://svgjs.dev/svgjs" width="1500" height="1500" viewBox="0 0 1500 1500"><rect width="1500" height="1500" fill="#f9f9f9"></rect><g transform="matrix(0.6666666666666666,0,0,0.6666666666666666,249.39393939393938,659.3701473651175)"><svg viewBox="0 0 396 72" data-background-color="#f9f9f9" preserveAspectRatio="xMidYMid meet" height="272" width="1500" xmlns="http://www.w3.org/2000/svg" xmlns:xlink="http://www.w3.org/1999/xlink"><g id="tight-bounds" transform="matrix(1,0,0,1,0.2400000000000091,-0.014617336149569837)"><svg viewBox="0 0 395.52 72.02923467229917" height="72.02923467229917" width="395.52"><g><svg viewBox="0 0 502.70826773408294 91.54958482080113" height="72.02923467229917" width="395.52"><g transform="matrix(1,0,0,1,0,12.652656078706961)"><svg viewBox="0 0 395.52 66.2442726633872" height="66.2442726633872" width="395.52"><g id="textblocktransform"><svg viewBox="0 0 395.52 66.2442726633872" height="66.2442726633872" width="395.52" id="textblock"><g><svg viewBox="0 0 395.52 66.2442726633872" height="66.2442726633872" width="395.52"><g transform="matrix(1,0,0,1,0,0)"><svg width="395.52" viewBox="2.5 -35.45 213.43 35.75" height="66.2442726633872" data-palette-color="#030303"><g class="wordmark-text-0" data-fill-palette-color="primary" id="text-0"><path d="M17.3 0.3L17.3 0.3Q10.15 0.3 6.33-4.53 2.5-9.35 2.5-17.6 2.5-25.85 6.55-30.65 10.6-35.45 17.85-35.45L17.85-35.45Q21.85-35.45 25.7-34L25.7-34 24.8-30.9Q21.75-32.2 17.6-32.2L17.6-32.2Q12.35-32.2 9.3-28.38 6.25-24.55 6.25-17.88 6.25-11.2 9.13-7.08 12-2.95 17.15-2.95L17.15-2.95Q20.55-2.95 25.7-4.9L25.7-4.9 26.7-2.3Q22.4 0.3 17.3 0.3ZM44.55-14.95L44.55-14.95 46.6-14.95Q46.6-19.5 45.45-20.88 44.3-22.25 40.35-22.25 36.4-22.25 33.65-21.2L33.65-21.2 32.95-24.1Q37.15-25.5 41.65-25.5L41.65-25.5Q50.45-25.5 50.45-16.7L50.45-16.7 50.45 0 48.25 0 46.95-2.95Q44.65-1.05 42.97-0.38 41.3 0.3 39.1 0.3L39.1 0.3Q35.6 0.3 33.65-1.78 31.7-3.85 31.7-7.25L31.7-7.25Q31.7-14.95 44.55-14.95ZM46.65-6.55L46.65-11.8 44.4-11.8Q39.3-11.8 37.37-10.8 35.45-9.8 35.45-7.68 35.45-5.55 36.55-4.2 37.65-2.85 39.42-2.85 41.2-2.85 42.82-3.68 44.45-4.5 46.65-6.55L46.65-6.55ZM63.3 0L59.55 0 59.55-35 63.3-35 63.3 0ZM87.09-3.9L87.09-3.9 87.84-0.95Q83.84 0.25 80.79 0.25L80.79 0.25Q75.44 0.25 72.74-3.25 70.04-6.75 70.04-12.9 70.04-19.05 72.84-22.28 75.64-25.5 81.09-25.5L81.09-25.5Q83.44-25.5 87.69-24.3L87.69-24.3 86.19-21.4Q83.44-22.2 81.24-22.2L81.24-22.2Q77.44-22.2 75.77-19.95 74.09-17.7 74.09-12.85L74.09-12.85Q74.09-3 81.14-3L81.14-3Q83.94-3 87.09-3.9ZM108.34-6.35L108.34-6.35 108.34-25 112.14-25 112.14 0 109.94 0 108.69-2.95Q104.69 0.3 101.04 0.3 97.39 0.3 95.47-1.83 93.54-3.95 93.54-7.85L93.54-7.85 93.54-25 97.29-25 97.29-8.45Q97.29-5.5 98.17-4.2 99.04-2.9 101.07-2.9 103.09-2.9 105.19-4 107.29-5.1 108.34-6.35ZM124.99 0L121.24 0 121.24-35 124.99-35 124.99 0ZM144.89-14.95L144.89-14.95 146.94-14.95Q146.94-19.5 145.79-20.88 144.64-22.25 140.69-22.25 136.74-22.25 133.99-21.2L133.99-21.2 133.29-24.1Q137.49-25.5 141.99-25.5L141.99-25.5Q150.79-25.5 150.79-16.7L150.79-16.7 150.79 0 148.59 0 147.29-2.95Q144.99-1.05 143.31-0.38 141.64 0.3 139.44 0.3L139.44 0.3Q135.94 0.3 133.99-1.78 132.04-3.85 132.04-7.25L132.04-7.25Q132.04-14.95 144.89-14.95ZM146.99-6.55L146.99-11.8 144.74-11.8Q139.64-11.8 137.71-10.8 135.79-9.8 135.79-7.68 135.79-5.55 136.89-4.2 137.99-2.85 139.76-2.85 141.54-2.85 143.16-3.68 144.79-4.5 146.99-6.55L146.99-6.55ZM160.48-5.4L160.48-5.4 160.48-22 157.08-22 157.08-25 160.53-25 160.53-32.15 164.28-32.15 164.28-25 170.38-25 170.38-22 164.23-22 164.23-6.1Q164.23-2.75 167.63-2.75L167.63-2.75Q168.43-2.75 170.08-3.05L170.08-3.05 170.63-0.35Q168.58 0.3 166.41 0.3 164.23 0.3 162.36-1.03 160.48-2.35 160.48-5.4ZM192.63-12.33Q192.63-17.15 190.73-19.7 188.83-22.25 185.18-22.25 181.53-22.25 180.01-19.83 178.48-17.4 178.48-12.4L178.48-12.4Q178.48-2.95 185.43-2.95L185.43-2.95Q189.08-2.95 190.86-5.23 192.63-7.5 192.63-12.33ZM193.53-3.1Q190.68 0.3 185.48 0.3 180.28 0.3 177.51-3.08 174.73-6.45 174.73-12.53 174.73-18.6 177.41-22.05 180.08-25.5 185.26-25.5 190.43-25.5 193.41-22 196.38-18.5 196.38-12.5 196.38-6.5 193.53-3.1ZM206.83-19.1L206.83-19.1 206.83 0 203.08 0 203.08-25 205.48-25 206.08-22.05Q208.48-23.95 210.08-24.73 211.68-25.5 213.73-25.5L213.73-25.5Q214.73-25.5 215.23-25.4L215.23-25.4 215.93-25.2 215.33-21.75Q214.43-22.05 212.88-22.05L212.88-22.05Q209.88-22.05 206.83-19.1Z" fill="#030303" data-fill-palette-color="primary"></path></g></svg></g></svg></g></svg></g></svg></g><g transform="matrix(1,0,0,1,411.1586829132818,0)"><svg viewBox="0 0 91.54958482080113 91.54958482080113" height="91.54958482080113" width="91.54958482080113"><g><svg xmlns="http://www.w3.org/2000/svg" xmlns:xlink="http://www.w3.org/1999/xlink" version="1.1" x="0" y="0" viewBox="6.593 8.439 82.814 82.814" enable-background="new 0 0 96 99.818" xml:space="preserve" height="91.54958482080113" width="91.54958482080113" class="icon-icon-0" data-fill-palette-color="accent" id="icon-0"><g fill="#f7b303" data-fill-palette-color="accent"><path fill="#f7b303" d="M6.593 77.364c0 7.668 6.219 13.889 13.891 13.889h25.311V52.051H6.593V77.364zM19.644 62.451h4.924l2.699 4.192 2.843-4.192h4.737l-5.168 7.221 5.642 8.025h-4.953l-3.101-4.723-3.129 4.723h-4.723l5.498-7.854L19.644 62.451z" data-fill-palette-color="accent"></path><path fill="#f7b303" d="M75.518 8.44H50.205v39.2h39.201V22.33C89.406 14.659 83.188 8.44 75.518 8.44zM73.016 30.759h-7.925v-4.033h7.925V30.759z" data-fill-palette-color="accent"></path><path fill="#f7b303" d="M6.593 22.33v25.312l39.201-0.001V8.44l-25.31-0.001C12.812 8.439 6.593 14.659 6.593 22.33zM25.566 22.219h3.675v5.471h5.527v3.774h-5.527v5.471h-3.675v-5.471h-5.513V27.69h5.513V22.219z" data-fill-palette-color="accent"></path><path fill="#f7b303" d="M50.205 91.253h25.312c7.672 0 13.89-6.221 13.89-13.889V52.051H50.205V91.253zM69.092 58.905h3.029L66.854 80.67h-2.973L69.092 58.905z" data-fill-palette-color="accent"></path></g></svg></g></svg></g></svg></g><defs></defs></svg><rect width="395.52" height="72.02923467229917" fill="none" stroke="none" visibility="hidden"></rect></g></svg></g></svg>